<?xml version="1.0" encoding="utf-8"?>
<!-- Generator: Adobe Illustrator 18.1.1, SVG Export Plug-In . SVG Version: 6.00 Build 0)  -->
<svg version="1.1" id="Layer_1" xmlns="http://www.w3.org/2000/svg" xmlns:xlink="http://www.w3.org/1999/xlink" x="0px" y="0px"
	 viewBox="0 0 1150 300" enable-background="new 0 0 1150 300" xml:space="preserve">
<metadata><?xpacket begin="﻿" id="W5M0MpCehiHzreSzNTczkc9d"?>
<x:xmpmeta xmlns:x="adobe:ns:meta/" x:xmptk="Adobe XMP Core 5.6-c014 79.156821, 2014/08/29-03:07:50        ">
   <rdf:RDF xmlns:rdf="http://www.w3.org/1999/02/22-rdf-syntax-ns#">
      <rdf:Description rdf:about=""
            xmlns:xmp="http://ns.adobe.com/xap/1.0/"
            xmlns:xmpGImg="http://ns.adobe.com/xap/1.0/g/img/"
            xmlns:xmpTPg="http://ns.adobe.com/xap/1.0/t/pg/"
            xmlns:stDim="http://ns.adobe.com/xap/1.0/sType/Dimensions#"
            xmlns:xmpG="http://ns.adobe.com/xap/1.0/g/"
            xmlns:dc="http://purl.org/dc/elements/1.1/">
         <xmp:CreatorTool>Adobe Illustrator CC 2014 (Macintosh)</xmp:CreatorTool>
         <xmp:CreateDate>2016-12-14T12:27:28Z</xmp:CreateDate>
         <xmp:Thumbnails>
            <rdf:Alt>
               <rdf:li rdf:parseType="Resource">
                  <xmpGImg:width>256</xmpGImg:width>
                  <xmpGImg:height>68</xmpGImg:height>
                  <xmpGImg:format>JPEG</xmpGImg:format>
                  <xmpGImg:image>/9j/4AAQSkZJRgABAgEASABIAAD/7QAsUGhvdG9zaG9wIDMuMAA4QklNA+0AAAAAABAASAAAAAEA&#xA;AQBIAAAAAQAB/+4ADkFkb2JlAGTAAAAAAf/bAIQABgQEBAUEBgUFBgkGBQYJCwgGBggLDAoKCwoK&#xA;DBAMDAwMDAwQDA4PEA8ODBMTFBQTExwbGxscHx8fHx8fHx8fHwEHBwcNDA0YEBAYGhURFRofHx8f&#xA;Hx8fHx8fHx8fHx8fHx8fHx8fHx8fHx8fHx8fHx8fHx8fHx8fHx8fHx8fHx8f/8AAEQgARAEAAwER&#xA;AAIRAQMRAf/EAaIAAAAHAQEBAQEAAAAAAAAAAAQFAwIGAQAHCAkKCwEAAgIDAQEBAQEAAAAAAAAA&#xA;AQACAwQFBgcICQoLEAACAQMDAgQCBgcDBAIGAnMBAgMRBAAFIRIxQVEGE2EicYEUMpGhBxWxQiPB&#xA;UtHhMxZi8CRygvElQzRTkqKyY3PCNUQnk6OzNhdUZHTD0uIIJoMJChgZhJRFRqS0VtNVKBry4/PE&#xA;1OT0ZXWFlaW1xdXl9WZ2hpamtsbW5vY3R1dnd4eXp7fH1+f3OEhYaHiImKi4yNjo+Ck5SVlpeYmZ&#xA;qbnJ2en5KjpKWmp6ipqqusra6voRAAICAQIDBQUEBQYECAMDbQEAAhEDBCESMUEFURNhIgZxgZEy&#xA;obHwFMHR4SNCFVJicvEzJDRDghaSUyWiY7LCB3PSNeJEgxdUkwgJChgZJjZFGidkdFU38qOzwygp&#xA;0+PzhJSktMTU5PRldYWVpbXF1eX1RlZmdoaWprbG1ub2R1dnd4eXp7fH1+f3OEhYaHiImKi4yNjo&#xA;+DlJWWl5iZmpucnZ6fkqOkpaanqKmqq6ytrq+v/aAAwDAQACEQMRAD8Anfmb/nKLSrPzHe6H5V8t&#xA;aj5tl01jHfXNiD6SuCVYJwSZmAYceRABPSo3xVLv+hoPNX/lrNc+6b/smxV3/Q0Hmr/y1mufdN/2&#xA;TYqtb/nLC7seNxr/AOXmtaVpYYLPeuGITkadJYoFPy5jFXuWga7pWv6NZ61pM4udOv4lmtp1qOSN&#xA;4g7gjoQdwdsVfLn5cflwPz9Gv+efOWt38fG/lsdHsbV0VLVUjSZaB1kXgqzKAq0qQSSScVej/wDO&#xA;MvmDzNLZ+avJ+v3jalN5O1NtOt76QlpGjDSR8CxqSqtAStTWhp0AxV7XirsVdirsVdirH/zC8wXP&#xA;l3yLr+u2qq11pthcXNuriq+rHGSnIdxypXFXzX5d/IH/ABb+WMn5lav5l1E+dr23m1W2vPVHpx+j&#xA;zMaN8PqfEE6q447UG26r2r/nHbzprHm/8q9M1PWZDPqULy2dxcn7UvoPRJG/yihXke5374q9KxV2&#xA;KuxV85/mza6p+Yv566f+WF1qlzpnlW30/wCvX0NowV7hyGc1qCpNOKryVgu5pviqE8paHe/k/wDn&#xA;3ovkfR9Wur/yl5otJJmsbxlZoZVWYqw4hE5c4ftKq1VqEGgOKvpO5nW3t5Z2BKxIzsB1IUV2xV8o&#xA;flt+VA/PTTNZ8+ec9cvl1G4vJrXS4LZlEVoI1R1orq1UXmFCLx2BJPI1Cr0n/nFrzZ5i1fyrrGi6&#xA;7dtqFx5a1B7CC+kYtI8NNlZmqzcWVuJJ+zQdsVe1Yq+cfzNsNR/ND8+U/LO91O407yrpGnrfXtva&#xA;kK1xIwRySSGWv71AvJSFoaCpxVS8i6Vf/lP/AM5B2H5c6VqlxfeU/MlhJfRWd2Q5t3RLhwVICry5&#xA;WjAlVFVYVBIBxV9J4q7FXYq7FXYq7FXg/wDzhnBCn5U3c6oomm1a49WSnxNxihC1PenbFUR5g/5y&#xA;8/LTQ9cv9GudO1mW5064ktZpIre29MvExRivqXEb0qNqqMVQH/Q6v5Wf9WrXP+kez/7K8VSjzd/z&#xA;lh5M80eV9V8t+XvLusahrGsWstjaWs9vAUZrhDHUiGaeRuPKoUJv0264q9W/IXyhq/lH8qtE0TVw&#xA;U1GNZZ7iAmvpG4meYRbVFVD0b3rirAP+cKv/ACVmq/8AbcuP+oO0xVFf846/8p/+cH/gRy/9RN1i&#xA;r2jWta0nRNLuNV1a6jstOtF53F1M3FEWoAqfckADudhirzzy5/zkr+UHmDW49Gs9YaK6ncR2r3UE&#xA;sEUzsaKqyOAFJ7c+NenXFXqGKsK/MH84/wAvvILww+Y9S9K9uF9SGxhRppylacyiA8VqDQsRXtiq&#xA;N8hfmZ5L8+WMt55Z1BbwW5UXUDK0c0RavHnG4DAGhoeh7HFU91fSdO1jS7vStSgFzp99E9vdQMSA&#xA;8cilWWqkEVB6g1xV4H+bvnFLOztvyM/K2y9bV7yAWN0sTF47GzcfvI2kcueTIT6jMfhU1+0RRV7D&#xA;+Wvki08j+SdL8s20nrCxiPr3FKepPIxkmenYF2PEdhQYqybFUu1rzL5c0KFZtb1Wz0uFzRJL24it&#xA;1J8AZWUYq1ovmby3rsby6Jq1nqkcf23sriK4Va7bmJmp0xV4l/6+T/24/wDmVirvzJ/9as/Ln/mB&#xA;l/VdYq9+dEdGR1DIwIZSKgg7EEHFXh35jeb/AC3+Ufl2HyF+XGmr/ivW5G/RmlW7STPC90eJun5m&#xA;Ri1RSNWPb+VaYqy78iPyxf8AL3yJDpt4wk1q+kN9q8gPICeRQPTVt6iNVC17mp74ql/nz/nJL8uf&#xA;JuvNoFwL3VtWi2ubbS4o5jC1OXB2kkhXkB1Ckkd8VYDqfmCw8qf85R2nmfXQ9hoXm3R4odPvp1Ma&#xA;I7RxLxm5fYKtEA4P2eQJoN8VUPzw802vkj/nI7yd541a0uptBtdHkhMtqiuZJGF7GUjMjRxll+sx&#xA;sw5fZOKs+8h/85Pflj5y1yHRLRrzTNQumCWaajFHGs0h6Ro8Usy8j2DEVOw3xV607pGjSSMERAWd&#xA;2NAANySTirxjUP8AnLn8n7PWm00T3t1CjmN9Tt7cPagg0JBLrKy+6xmvbFXrukatpusaZbapplwl&#xA;3p95Gs1tcxmqujCoI/oemKoHzd5v8veUdCuNc1+7Wz063oGkILMztsqIq1ZmbsBirzvyf/zlJ+VX&#xA;mjXodEgmu9Pu7mQQ2b38KRxTSMQFRXjkl4liaDnx3xV5j/zjf+c35eeQ/I975b836jJpGrwalPI9&#xA;vJa3MuzKiEfuI5aMrRkENTFXq3/Q0f5E/wDUzf8ATjqH/ZPirv8AoaP8if8AqZv+nHUP+yfFWR+T&#xA;Pzi/LTzpeyWPlrXYr29jUubVo5reUqOrIlwkTOB34g0xVmWKvAP+cKv/ACVmq/8AbcuP+oO0xVV/&#xA;5xiuF1DzJ+aOswUay1DzBJJbyKaqwMs8mx2r8Mq4qrf85htI35baRah2SG8160guAppyjMFw3E/7&#xA;JAfmMVQ//OUPkXyfp35MTT6do9rZT6TNaCwlt4kjeNWlWFl5qAxBRtwTuaHqMVe1eWZpZ/LekzTO&#xA;ZJZbO3eR23LM0Skkn3OKvDvJuh6Tr3/OUP5gXOtWsWovplrapYLdIsqRB4oVJRHBUGgoD7nxOKr/&#xA;ACxpGm6H/wA5bazZ6RbpY2d7oP1i4tYAEiMjNCSwRaKKla7DrU98VewfmD5guPLvkXX9dtgGutN0&#xA;+5ubcMKr6scTGPkD25Uriry7/nGnyrp/l/8ALaXz7qXK617zAk+o6lfv8c3oI7MsasT+1w9RvFjv&#xA;0GKvRvyy/MPTPzA8pw+Y9Ot5rSCWWWFrefjzVom4ndSQaihxVJfzv/NmL8u/LMc1rCL3zFqshttE&#xA;sKE85duUjKvxMkfIbDdiQu1ahVgfkr/nGlNcLeavzgup9f8AMt+okl09p3jgtlO6xs0LIWKfyowj&#xA;XoARviqT+bfyc8j291NrH5JeYINP886Gj3TaLY6gt000cZBkQxtJLKjGoHFv3bfZYb1xV6B+SWr+&#xA;UPzDtYfzKbTY4fPEUJ0fWJ1eSiNHxYhIi5QLIpVg3HlQ8eRocVYz+ZP/AK1Z+XP/ADAy/qusVe+X&#xA;EyQQSTvXhErO1OtFFTTFXz3/AM4vaLF5pu/MH5sa6Bd+YtT1Ca2tC/xi1iVEZhFUfCSsgjHgi0HU&#xA;4q9V/Lj80NG8+HXBpttPbjQ757CUz8aSFa0kTiTsaHY4q8F/Lnz15a/KH8w/POm+f7aaz1TUr57q&#xA;z1sQPN69s8juACoL8HLBwQCCahqFRir06TzV+Sf562N55Rjuje3MURuYecMlvcQkfB69u8qj4kLC&#xA;o7g7gjFWO/kr5k80eSPPN5+TnnC6+uw2tubvyxqhqC9qgL+nvU8PTVioJ+Aoy1I40VYl+cHn/wAp&#xA;/m55j8peX/y+t5dT8wW+orO+srBJAbe2Q0deTqsnCtJWagC8R3OKve/zmlki/Kbze8bFH/RN2OQ2&#xA;NGhYH8DirAPyh8uaDP8A84wxwTWEDxahpt/NegotZZA8wWRz1LLxHFuq0FOmKov/AJxHnml/JiyS&#xA;Ryyw3l3HED+yvqc6D/ZMTiqWf85U20N7J+X2m3Q9SxvPMEMdzbkng6sVQhh/quw+nFUN/wA5iaLp&#xA;UP5ZaXqFvaxwXum6lBDYzxKI3iieKWsaFQOKVRTQdwMVZ7r/AJm/ICPWLqPXbvy22rxuUvPrQs3n&#xA;Ei7FZCwZuQ6EHcYql/8Ain/nGT/lp8qf8i7L/mnFXf4p/wCcZP8Alp8qf8i7L/mnFXkvn6+/LzVv&#xA;zo/L5fyqS1bXYr5G1a40eNY7c26yRn94Ywsb8YhLzI/Y2bsMVfV+KvmfXnT8kPJEn5aeT72fXvOv&#xA;my8lm09VjCS2yXKR24k4oW+ILDSM92q2wFMVeu/kp+Wyfl75BstCdlk1GRmu9VmT7LXUoHIKe4RV&#xA;VAe/GuKsF/5zA/5QDy9/4Edn/wBQ11iqbf8AOWH/AJJLV/8AjPZ/9RKYq9K8p/8AKK6N/wAwNt/y&#xA;ZXFXj/5Y/wDrS/5n/wDGCz/5NxYq6y/9bBv/APwHF/4lFir0D86//JR+b/8AtlXX/Jo4qx/8rf8A&#xA;1nHTP+2HP/xCTFUq/wCcQv8AyTdt/wAx13/xIYqkjWy+c/8AnLmaK8/e6f5G02Oa1ibdPrBWN1YD&#xA;+ZZbvlX/ACB7YqjPz91bzF5n88+W/wAoNCvH0+LXYze69dx7N9SUv8FfDjBISv7R4jod1We/l/8A&#xA;kh+XPkOZLzQdNI1VYTBJqdxLJLO6tTlUMfTXlxH2EXFXnX5P258s/wDORn5j+UbcFdPvYU1mGOlE&#xA;Us8clEHSg+vldv5fbFV35k/+tWflz/zAy/qusVe66t/xyr3/AIwS/wDEDirxT/nDb/yUc3/bVuf+&#xA;TUOKoX/nE3/pvv8AtuP/AMb4q9y1TQ9F1aNYtU0+2v403VLqGOZQfYSBsVeCeVdM03Tf+cv9btNO&#xA;tIbK0TQ1KW9vGsUYLR2xJCIFUVOKonzl/wCtk+RP+2HN/wAmtTxV7lpuh6JpZlOmafbWJmPKY20M&#xA;cPM9atwC1+nFWL/nX/5KPzf/ANsq6/5NHFWK/k3/AOs0af8A9sq//wCTk+KoT/nEL/yTdt/zHXf/&#xA;ABIYqhP+cnP+Or+Wn/gR2/8AxOPFXf8AOZP/AJKOH/tq23/JqbFWKf8AOLv5V/l95p/Lu51nzFos&#xA;GqanJqU8TXNyXduCRxlQByoN3J6b98VZX+W/k/8AJHzvdeZIIfIlpZHy7qUmmszsZPWEZIEgpx4V&#xA;Kn4d/nirNv8AlQP5Nf8AUp2P/At/zViqeeVvy58i+VJZp/Luh2mmzzrwlnhjAkZa148zVuNRWlaY&#xA;qyPFXzr/AM45WEfnPz55z/NTVB9Zumv30/Rmb4lgiCgkIelVgaJAR2r/ADYqmf8AzjTqF/d+afzR&#xA;F1cyzrHrrGNZHZwtZbgHiCTTZQNvAYq3/wA5iFo/y20e54M8Vpr9pNNx6hBb3IrvTuwGKpr/AM5U&#xA;utx+RmrTwH1IWksZBIu44Ncx0avgeQxV6L5QvrY+R9EvncRWzaZazGSQhQqGBWqxrQUHXfFXjn5G&#xA;6jb+Y/zv/MvzRpVZ9DlNvawXo/u5HT4Kof2gRCW+RHjiqvpMqXP/ADmFrIg+P6l5eRLkj9hj9XYV&#xA;+iVcVeh/nX/5KPzf/wBsq6/5NHFWP/lb/wCs46Z/2w5/+ISYqlX/ADiF/wCSbtv+Y67/AOJDFUo0&#xA;GRfLv/OX+v2t38EfmnSUk05m6s6Rws1D4VtZvuxVb+d8s/kX85fKH5qS27z+X1hbSNYeNSxh5eqB&#xA;IfcpOSo78Kd8Vern82fyzGh/pw+Z9N/RhXmJvrEfI0FePp19Tn/kceXamKvKPyInvvO/5vec/wA1&#xA;I4ZLfQLmEaPpPqDiZUQwnlTxVLZGbwL03piqp+ZP/rVn5c/8wMv6rrFXuurf8cq9/wCMEv8AxA4q&#xA;8U/5w2/8lHN/21bn/k1DiqF/5xN/6b7/ALbj/wDG+Kvf8VeA6SjJ/wA5ka0XHES6Ehjr+0BHbjb6&#xA;VOKqH5jXtjpX/OW3kPVNSuYrOw/Q8sJuZ3EcYdlv0UMzUA5NMgHucVe/WWoWF9EZrK5iuogeJkhd&#xA;ZFqO1VJGKpD+ZukXGs/l15m0u2Uvc3mmXcVui9WlMLcF+lqDFWA/8403tj5h/Iaw0wPRrdbzTL0L&#xA;1Rnkdx98UytirGv+cXPNVr5dj1f8q/MMiaf5l0nUJmtYZTwFxG/EMIi32mDLyFPtIwIqAcVRv/OS&#xA;0jz+c/yo0qIj1brXlkC0P+65rZORIrQD1cVVv+cyf/JRw/8AbVtv+TU2Kof/AJw41GxT8rtRtHnR&#xA;Lqw1Od72B2CvEjxRFXdTQqp4Nv02PgcVVP8AnFeeK8k/MLUrY+pY3nmGaS2uB9h1Ys4Kn/VdT9OK&#xA;vecVdirsVfPX/OGF5aQfl9r2mTTJFqFlrE013auQskcb20CK7g9FLQuK/wCScVX/APOK0sdzrn5m&#xA;X9uwlsrrW+VvcLukimS4eqt0Pwup+nFXrX5neRrbzx5G1Xy1O4ie9irazsKiK4jIeFzTegdRyp2q&#xA;MVeH+StW1rzr+WPmn8k/MlpLb+d/L+nvHbLKKpPHaOjWhMhPGqy+mvLoy8XUnfFVH8tfL3kn86PI&#xA;OgeXvM2pX9jr3kqN7C60i2nSAyQoyrE8kUschYKkSoStCrA17Yq9M13zZ+VX5G+TDp1mIbeSJWez&#xA;0WFw93dTsv25CeT/ABbcpH2A6dlxVJv+cb/JfmGKLWvzE82Jw8x+cZBOkLCjQ2lS6Dj+z6hIIXsq&#xA;r74qzj854pJfym83pGpd/wBE3Z4qKmgiYn8BirC/ys8x6H/0LLb3b3sUdvY6TdW127uq+nMgkQo2&#xA;+zEkcR1NRTriq7/nEi2nh/JeweRCq3F3dyQk/tIJSlR/skIxVW/5yF/LLW/MVhpvmzykzR+c/K0n&#xA;1iwEf254gwdol8XVl5ID13X9rFV35efnf5A/MfRX0HzIttp+usv1bVvL2phVjlkXZxCJtpByH2D8&#xA;a9xtUqr7n/nGj8h7OeTVbrREgt4z6siy3lylsnuQ0oULXsTT6MVU7H/nIj8ldK8y2nknTLuG20+J&#xA;PRi1G3SOLSoHB+GESgqoB/nUcP8AK60VYfr2u6P5t/5yt8mt5bvItVg0awmOo3Vq4lgjIS4Yj1E5&#xA;Kaeog27sB1xV9DajE8un3UUY5SSQyKi+JKkAYq8J/wCcOdS0+P8AKzUbaS5jjuLDUriW9idgrQxt&#xA;FGVeQGnFTwbc7bHwOKrf+cRmE9j53v4fjs7nXHNvOPsv8JfY/wCrIp+nFX0Bir58/PiLVPIv5n+W&#xA;fzesbSS70q2j/RvmKOIVKxOWVXb/AFkmIUnbkqg9cVZ3qWh/kx+dGlWd5MbbXEt1LW0sE7xXUAeh&#xA;ZHEbJKlabo4+jFXlDeVdJ/Kj/nITyjpfke6nFp5jRota0R5jKEiJIWQ1PKg3deVSCh3oaYq+n8Vf&#xA;NVxLefkB+Z19qEtvJN+V/m6YPJLCpf6hdEs3HiP5atQftR9KslMVej+cPy2/J781dOg8xXckNwkc&#xA;YZNe0+dYnES/FxlkFVIXwkFV36Yq880W7svzM/5yM0650VjdeT/y8s/TS8qXjluqMqMrmvItIRxP&#xA;7QiLd8VTz/nMn/yUcP8A21bb/k1NiqZ+cv8AnFj8uPM2vXGtLNfaPcXzF9Qh06WNIZixq7FJI5OL&#xA;MdzTau9K4q9H8m+TfL3k7QLfQdAtRa6fb1YLUs7uxq0kjndmbx+jpiqd4q7FXYq8f87f84uflx5p&#xA;1+fXPVvtIu71i2opp0saRTlzV2ZJI5OLOdzx2PUiu+KvQvJPkjy35K8vw6D5etvq1hES7cmLySSt&#xA;TnLI53Zmp/AUAAxVPsVWiGISmUIolYBWkoORUbgE9ab4q8q8/wD/ADjV+XPnLWJNbcXWj6xMxe4u&#xA;9NkSP1ZD+3IjpIvI92XiT3OKteSf+cY/ys8qahHqa2txrOpRN6kNzqkizBH68liRIoia7gspI7b4&#xA;q9YxVp0SRGjkUOjgq6MKgg7EEHFXiN//AM4g/lVdaw17HLqVnYySerJpEFwgtiwNQBzjeUL12518&#xA;CMVeyaRpOm6PpltpemW6Wmn2caw21tGKKiKKAD+p64qi8VYB59/Ir8s/PEzXes6UI9Tb7Wp2bG3u&#xA;G93K/DIaClZFanbFWCQ/84a/losiC41bW7q1iIMVrJcW4Qbbg8bdT/wNMVZz/wAqA/J46AmhN5Yt&#xA;WsUf1A9ZBcl6U5G6Vhcf8PTFU68lfln5F8kRTx+V9Ii076zT6xKGkllcA1AaWZpJCorsOVMVZPir&#xA;x3zj/wA4r/lp5m8wXGtmS+0me9YvfwafLFHDMzHkzFJIpeLM1CeJp3pXfFXpPlDyf5f8oaBbaFoF&#xA;qLTTrapVKlmZ2NWkkc7szHqT8ulMVTnFVG8s7S9tJrO8gjubS4Qxz28qh43RhRlZWqCCOxxV43r3&#xA;/OI35R6ndm7skv8ARJC3MJp9wBGG61C3CT8d96KR7UxVPPyz/wCcevIvkHVn1uye71PW2VkTUNQk&#xA;V2iVxR/SVEjVSw2LGrUqK0NMVenEgCp2A6nFXzt5v/5yPtdd/S+m6D5BuvOvk+y5Q6xqXx/VmUfa&#xA;KqsM4Cj7SsxBpvQdcVYZov5ff84kea4F1eDzLdeXKr6k+i3V9BbGIjcxj61HK0n/ADzlbFU6svM+&#xA;jXPnLyp+Xn5F+tb6Np1+uoeZ9UtvUEU0KOgl9aWT45V4BgS3wsSqr2xVk/8AzmLdLL5D0TQIB6mq&#xA;axrEK2duD8TCOORWIHejyxr/ALLFXveKuxV2KuxV2KuxV2KuxV2KuxV2KuxV2KuxV2KuxV2KuxV2&#xA;KuxV2KuxV2KuxV2KuxV2KobU7IX2m3dkXMQuoZITIvVfUUryHyrir5n/ACf/ADDj/Jh7r8uPzHsp&#xA;NJX63Jc6drkcbSWs6ycVLEqCzL8I4uoNK8WC8cVejXPk3/nGfzbM2rGHQbyWb45Zra6jhLFu8iwS&#xA;R/Eab8hXFVLUfzb/ACD/ACv0eW20OfTy9OS6ZoYjmllkHT1JIqoDv1letMVY1+XPlHzn+Zf5g235&#xA;p+fLE6XpOmgHynoLk8loeUczKQrUU/HyYAu1CAEAGKvoXFXYq7FXYq7FXYq7FXYq7FXYq7FXYq7F&#xA;XYq7FXYq7FXYq7FXYq7FXYq7FXYq7FXYq7FXYqx3z3/gL9Ayf44/R/6Frv8ApT0vS5024er+3/Lx&#xA;+LwxV826r/0JF9dfj69f2vqv6V9LlU148v8AjXbwxVnv5Uf9Cp/pGD/CH6P/AE1yH1f9I+t9b9Tt&#xA;6H1/9v8A4xYq93xV/9k=</xmpGImg:image>
               </rdf:li>
            </rdf:Alt>
         </xmp:Thumbnails>
         <xmpTPg:MaxPageSize rdf:parseType="Resource">
            <stDim:w>1150.000000</stDim:w>
            <stDim:h>300.000000</stDim:h>
            <stDim:unit>Pixels</stDim:unit>
         </xmpTPg:MaxPageSize>
         <xmpTPg:NPages>1</xmpTPg:NPages>
         <xmpTPg:HasVisibleTransparency>False</xmpTPg:HasVisibleTransparency>
         <xmpTPg:HasVisibleOverprint>False</xmpTPg:HasVisibleOverprint>
         <xmpTPg:PlateNames>
            <rdf:Seq>
               <rdf:li>Cyan</rdf:li>
               <rdf:li>Magenta</rdf:li>
               <rdf:li>Yellow</rdf:li>
               <rdf:li>Black</rdf:li>
            </rdf:Seq>
         </xmpTPg:PlateNames>
         <xmpTPg:SwatchGroups>
            <rdf:Seq>
               <rdf:li rdf:parseType="Resource">
                  <xmpG:groupName>Default Swatch Group</xmpG:groupName>
                  <xmpG:groupType>0</xmpG:groupType>
               </rdf:li>
            </rdf:Seq>
         </xmpTPg:SwatchGroups>
         <dc:format>image/svg+xml</dc:format>
      </rdf:Description>
   </rdf:RDF>
</x:xmpmeta>
                                                                                                    
                                                                                                    
                                                                                                    
                                                                                                    
                                                                                                    
                                                                                                    
                                                                                                    
                                                                                                    
                                                                                                    
                                                                                                    
                                                                                                    
                                                                                                    
                                                                                                    
                                                                                                    
                                                                                                    
                                                                                                    
                                                                                                    
                                                                                                    
                                                                                                    
                                                                                                    
                           
<?xpacket end="w"?>
	</metadata>
<g>
	<path d="M17.6,152.2c-2.4,0-4.2,1.8-4.2,3.9v49.3c0,7.8,6.3,14,14,14c7.5,0,13.7-6.3,13.7-14v-34.9c0-7.8,11.6-7.8,11.6,0v34.9
		c0,14.3-11.4,25.7-25.4,25.7c-14.3,0-25.7-11.4-25.7-25.7V156c0-8.7,6.9-15.8,15.8-15.8h98c7.8,0,13.7-6.3,13.7-13.7
		c0-7.8-6-13.7-13.7-13.7h-98c-9,0-15.8-7.2-15.8-15.8V47.6c0-14,11.3-25.7,25.7-25.7H129c14,0,25.7,11.6,25.7,25.7
		c0,14-11.6,25.7-25.7,25.7H47.1c-8.1,0-8.1-11.9,0-11.9H129c7.8,0,13.7-6.3,13.7-13.7c0-7.8-6-13.7-13.7-13.7H27.4
		c-7.8,0-14,6-14,13.7V97c0,2.1,1.8,3.9,4.2,3.9h98c14,0,25.7,11.6,25.7,25.7c0,14-11.6,25.7-25.7,25.7h-98V152.2z"/>
	<path d="M221.2,153.1c0-7.8,11.9-7.8,11.9,0v52.3c0,14.3-11.6,25.7-25.7,25.7c-14,0-25.7-11.4-25.7-25.7v-19.7
		c0-53.2,39.7-49.3,39.7-98V28.2c0-7.8-6.3-14-14-14c-7.5,0-13.7,6.3-13.7,14v92.6c0,7.8-11.9,7.8-11.9,0V28.2
		c0-14.3,11.6-25.7,25.7-25.7c14,0,25.7,11.4,25.7,25.7v59.4c0,54.4-39.4,50.2-39.4,98v19.7c0,7.8,6.3,14,13.7,14
		c7.8,0,13.7-6.3,13.7-14L221.2,153.1L221.2,153.1z"/>
	<path d="M407.9,89.1c0-9.3-6.6-14-13.7-14c-7.5,0-14,4.8-14,14V162c0,18.2-14.6,32.9-32.9,32.9c-7.8,0-7.8-11.6,0-11.6
		c11.6,0,21.2-9.6,21.2-21.2v-73c0-17.3,13.1-25.7,25.7-25.7c12.2,0,25.4,8.4,25.4,25.7V162c0,34.9-24.8,69-61.8,69
		c-35.8,0-43-41.5-43-69V89.1c0-9.3-6.6-14-14-14c-7.2,0-13.7,4.8-13.7,14V162c0,17.6,7.8,34.6,21.2,46c6,5.1-1.8,14-7.8,9
		c-15.8-13.7-25.1-33.8-25.1-55V89.1c0-17.3,13.1-25.7,25.4-25.7c12.5,0,25.7,8.4,25.7,25.7V162c0,20,3.9,57,31.4,57
		c30.5,0,50.2-29,50.2-57V89.1H407.9z"/>
	<path d="M502.3,100.8c0-7.8,11.6-7.8,11.6,0v104.5c0,14-11.4,25.7-25.7,25.7c-14,0-25.4-11.6-25.4-25.7V102.9
		c0-32.6,39.4-45.4,39.4-70.8V30v-2.1c0-7.5-6.3-13.7-14-13.7c-7.5,0-13.7,6.3-13.7,13.7v12.5c0,8.1-11.6,8.1-11.6,0V27.9
		c0-14,11.3-25.7,25.4-25.7c14.3,0,26,11.6,26,25.7V30v2.1c0,31.7-39.7,44.2-39.7,70.8v102.4c0,7.5,6.3,13.7,13.7,13.7
		c7.8,0,14-6.3,14-13.7L502.3,100.8L502.3,100.8z"/>
	<path d="M698.5,28.2c0-9.3-6.6-13.7-14-13.7c-7.2,0-13.7,4.5-13.7,13.7v48.7c0,7.8-11.9,7.8-11.9,0V28.2c0-17,13.4-25.7,25.7-25.7
		c12.5,0,25.7,8.7,25.7,25.7v172.3c0,24.5-29.6,34.1-44.8,17.6c-11.9,8.4-26,12.8-40.6,12.8c-45.4,0-76.8-38.8-76.8-82.4
		c0-29.6,14.6-56.7,40-72.3c7.2-4.5,15.5-6.3,23.9-6.3c40,0,57.6,45.4,57.6,78.6c0,23.3-16.4,42.7-40.6,42.7
		c-23.9,0-40.3-19.4-40.3-42.7c0-23.6,16.4-43,40.3-43c8.1,0,8.1,11.9,0,11.9c-17.6,0-28.7,14-28.7,31.1c0,16.7,11,31.1,28.7,31.1
		c17.6,0,28.7-14.3,28.7-31.1c0-26-13.1-66.9-45.7-66.9c-6,0-12.2,1.2-17.6,4.8c-21.8,13.1-34.3,36.4-34.3,62.1
		c0,37,26,70.5,64.8,70.5c14,0,27.5-5.1,38.2-14c9.3-7.5,8.4,11.9,24.5,9c6-1.2,11-5.4,11-13.4V28.2H698.5z"/>
	<path d="M794.1,100.8c0-7.8,11.6-7.8,11.6,0v104.5c0,14-11.4,25.7-25.7,25.7c-14,0-25.4-11.6-25.4-25.7V102.9
		c0-32.6,39.4-45.4,39.4-70.8V30v-2.1c0-7.5-6.3-13.7-14-13.7c-7.5,0-13.7,6.3-13.7,13.7v12.5c0,8.1-11.7,8.1-11.7,0V27.9
		c0-14,11.4-25.7,25.4-25.7c14.3,0,26,11.6,26,25.7V30v2.1c0,31.7-39.7,44.2-39.7,70.8v102.4c0,7.5,6.3,13.7,13.7,13.7
		c7.8,0,14-6.3,14-13.7V100.8H794.1z"/>
	<path d="M912.7,115.7c0-28.4-39.4-35.8-39.4-62.4V27.9c0-14,11.7-25.7,25.7-25.7s25.7,11.6,25.7,25.7v33.2h18.5
		c14,0,25.7,11.3,25.7,25.4c0,14.3-11.6,25.7-25.7,25.7h-3.3c-7.8,0-7.8-11.6,0-11.6h3.3c7.5,0,13.7-6.3,13.7-14
		c0-7.5-6.3-13.7-13.7-13.7h-24.5c-3.3,0-6-2.7-6-6v-39c0-7.5-6.3-13.7-13.7-13.7c-7.5,0-14,6.3-14,13.7v25.4
		c0,18.2,39.7,28.7,39.7,62.4v49c0,14.6,1.5,14.9,13.4,14.9c17,0,25.4,13.1,25.4,25.7c0,12.5-8.4,25.7-25.4,25.7
		c-47.8,0-64.8-25.1-64.8-66.3v-52.6h-18.5c-14,0-25.7-11.4-25.7-25.7c0-14,11.7-25.4,25.7-25.4h4.2c7.8,0,7.8,11.6,0,11.6h-4.2
		c-7.5,0-13.7,6.3-13.7,13.7c0,7.8,6.3,14,13.7,14h24.5c3,0,5.7,2.7,5.7,5.7v58.5c0,35.8,13.4,54.4,53.2,54.4
		c9,0,13.7-6.6,13.7-13.7c0-7.5-4.8-13.7-13.7-13.7c-22.7,0-25.4-5.7-25.4-26.9v-48.9H912.7z"/>
	<path d="M1137.2,87.1c0-9.3-6.6-13.7-13.7-13.7s-13.7,4.5-13.7,13.7v62.1c0,28.1-5.1,81.2-44.8,81.2c-8.4,0-16.7-2.1-23.9-6.6
		c-25.4-15.8-40.3-45.4-40.3-74.7v-62c0-17,13.1-25.7,25.7-25.7c12.6,0,25.7,8.7,25.7,25.7v62.1c0,14.3,8.1,29,22.7,32.9
		c7.5,2.1,4.5,13.4-3.3,11.3c-19.7-5.4-31.4-24.5-31.4-44.2V87.1c0-9.3-6.6-13.7-13.7-13.7c-7.2,0-13.7,4.5-13.7,13.7v62.1
		c0,25.4,12.2,51.4,34.7,64.8c5.1,3.3,11.3,4.5,17.6,4.5c30.5,0,32.9-49.3,32.9-69.3V87.1c0-17,13.1-25.7,25.7-25.7
		s25.7,8.7,25.7,25.7V229c0,43.3-40,70.2-80,70.2c-19.7,0-40.3-5.7-55.9-18.5c-26-22.1,7.2-61.2,33.2-39.1
		c6.3,5.1,14.3,7.5,22.4,7.5c10.8,0,29-6.6,29-20c0-8.1,11.9-8.1,11.9,0c0,20.6-23.3,31.7-40.9,31.7c-10.8,0-21.8-3.3-29.9-10.2
		c-16.1-13.7-44.5,17.3,3.9,32.9c8.1,2.7,17,3.9,26.3,3.9c33.5,0,68.1-21.8,68.1-58.2V87.1H1137.2z"/>
</g>
</svg>
